# xmcd CD database file
#
# Track frame offsets:
#	150
#	17701
#	35105
#	56626
#	74272
#	93977
#	105732
#
# Disc length: 1647 seconds
#
# Revision: 1
# Processed by: cddbd v1.5.2PL0 Copyright (c) Steve Scherf et al.
# Submitted via: CDex 1.70beta2
#
DISCID=5b066d07
DTITLE=Minstrel - 夢と幻と泡と影
DYEAR=2009
DGENRE=東方アレンジ
TTITLE0=恋色シンドローム
TTITLE1=紅照らし月おぼろ
TTITLE2=アリスマエステラ
TTITLE3=夢と幻と泡と影
TTITLE4=夜霧、残像
TTITLE5=西行寺無余涅槃
TTITLE6=人形少女言葉無し
EXTD=YEAR: 2009
EXTT0=
EXTT1=
EXTT2=
EXTT3=
EXTT4=
EXTT5=
EXTT6=
PLAYORDER=
